Simulation
nRows=27
nColumns=15
endheader
time  TH_x TH_y TH_z SC_y  SC_z  SC_x  AC_y  AC_z  AC_x  GH_y  GH_z  GH_yy  EL_x  PS_y
1.9499999999999993  0.000000  0.000000  0.000000  -29.217069200211412  11.718057741182472  23.726512726746016  61.09348413480295  11.453457492869875  1.9828229195874922  48.12132142695826  58.774914560428506  -44.86442200680678  22.348741656425513  0.000000
1.9889999999999992  0.000000  0.000000  0.000000  -28.91428374895136  11.361157534570696  23.32563917175748  60.92653505901619  11.148249756320357  1.1724259959995673  48.545854842960516  57.88969184672942  -44.40879351387926  22.561420197333334  0.000000
2.027999999999999  0.000000  0.000000  0.000000  -28.573453284696953  10.957274461492876  22.887990312800603  60.72629625662552  10.801978251935274  0.29592782769731174  49.00710523701569  56.90059173686854  -43.983801289474265  22.768715363861816  0.000000
2.0669999999999993  0.000000  0.000000  0.000000  -28.172756202952485  10.498538868942209  22.393137605780346  60.53708254831191  10.433584356742438  -0.6355731741658909  49.51433401795144  55.83253928411204  -43.59960333165869  22.952665126067586  0.000000
2.1059999999999994  0.000000  0.000000  0.000000  -27.745345097193326  9.99682267924249  21.86053376451773  60.323522826803966  10.039241753450055  -1.5971275958420683  50.03406734962874  54.68703664649317  -43.216416061320395  23.101518664008964  0.000000
2.144999999999999  0.000000  0.000000  0.000000  -27.278112258646754  9.44873254321921  21.270097179209774  60.12553041308865  9.63896305899354  -2.5762861717975793  50.552744478077514  53.48691380352127  -42.78771580019742  23.19980995564037  0.000000
2.1839999999999993  0.000000  0.000000  0.000000  -26.81444119465024  8.86350865521348  20.638477737303138  59.90703672617492  9.21950213697218  -3.5607555076033544  51.01826152356505  52.24525170427607  -42.26072089574132  23.252195284852995  0.000000
2.2229999999999994  0.000000  0.000000  0.000000  -26.366453918239607  8.243716526867924  19.920805791087542  59.702954730512445  8.797600613535742  -4.531071342808671  51.41310500930809  50.998273402023884  -41.60646265695389  23.26008510782739  0.000000
2.261999999999999  0.000000  0.000000  0.000000  -25.940540805283174  7.607125762364611  19.12512187394114  59.38155623482395  8.376751133607915  -5.539676041351829  51.77961212630535  49.79087195089495  -40.847683448250706  23.291681575058234  0.000000
2.3009999999999993  0.000000  0.000000  0.000000  -25.54042283531614  6.962175353474259  18.23613227546796  58.97701122870947  7.966948136824298  -6.564843147237415  52.156728479338796  48.64520922610639  -40.00684554250325  23.388712580718618  0.000000
2.339999999999999  0.000000  0.000000  0.000000  -25.288389865930135  6.363969353596144  17.213999028573944  58.69512127486158  7.554082095458711  -7.300343927872479  52.28834498834924  47.42973326873575  -38.93212501823879  23.493438722388635  0.000000
2.378999999999999  0.000000  0.000000  0.000000  -25.113871444137946  5.813389656659727  15.953008102367113  58.55878953893642  7.171846197558741  -7.695022770785825  52.072227705855454  46.179658158676126  -37.54906468447184  23.638330004848235  0.000000
2.4179999999999993  0.000000  0.000000  0.000000  -24.972441931671444  5.3113038369017005  14.447381373314476  58.44121892848733  6.896060875572134  -7.805733897269889  51.53756168108383  44.91367202639719  -35.84161202876199  23.836053675757512  0.000000
2.456999999999999  0.000000  0.000000  0.000000  -24.81099763823395  4.864701783348921  12.7618166172556  58.375837002726264  6.745935962216574  -7.645513717634334  50.63465359900781  43.557257061018795  -33.76396829972871  24.089808818535502  0.000000
2.495999999999999  0.000000  0.000000  0.000000  -24.604645563621748  4.459904999584552  10.95113810109099  58.193032082066836  6.6599316396151  -7.379947170761522  49.44341425610249  42.24878515255113  -31.381159344951115  24.3720703397619  0.000000
2.5349999999999993  0.000000  0.000000  0.000000  -24.345171706963136  4.08346979960142  9.155136849368898  57.94232126209533  6.634895089707798  -7.081671105746229  48.00273419488384  40.90562109912566  -28.718309265669294  24.667115643081175  0.000000
2.573999999999999  0.000000  0.000000  0.000000  -24.063357447950384  3.7151869051841984  7.474517092905866  57.38264800345654  6.506858987039618  -7.028661967268779  46.54143714654164  39.75249096573665  -26.002139282815136  24.97319809443808  0.000000
2.612999999999999  0.000000  0.000000  0.000000  -23.84293998378126  3.3301401584459045  6.091120204943103  56.53726955803408  6.252309324710397  -7.334376287098383  45.26164994763008  38.67001119198337  -23.388229124210472  25.295090651996826  0.000000
2.6519999999999992  0.000000  0.000000  0.000000  -23.67144176266396  2.8511733143559708  5.096177261665148  55.1629802087878  5.967141555791655  -8.383786079792342  44.63156248599004  37.71638621994653  -21.265193709202332  25.74531737279004  0.000000
2.690999999999999  0.000000  0.000000  0.000000  -23.522029211545505  2.1974271780342036  4.716016766749706  53.27401089381415  5.745308097500262  -10.385183983144481  45.15471095670549  36.72509105067395  -20.05247078911904  26.392989956036004  0.000000
2.729999999999999  0.000000  0.000000  0.000000  -23.746502235267748  1.3825647392884912  5.25384888905755  52.448511688838344  5.745635575291854  -12.649575925749554  45.79685174955522  34.88241468860645  -18.77091119713938  27.035741173938572  0.000000
2.768999999999999  0.000000  0.000000  0.000000  -24.701120907022517  0.17277821852703995  6.223271020745893  53.51276155671501  5.825631890486364  -14.851667983509277  46.37781461839315  32.70685770310228  -17.669390822587744  27.621329017472686  0.000000
2.807999999999999  0.000000  0.000000  0.000000  -26.519481991951828  -1.1101241490823117  7.247613604356482  54.43644206033945  5.3569134867497175  -14.812321554772021  46.483358519705575  29.48180745568165  -15.817171584996037  28.52554379455858  0.000000
2.846999999999999  0.000000  0.000000  0.000000  -28.494319009871717  -1.4165259722603607  6.873972529318995  55.81367761225958  4.713101730952059  -12.931306113471067  46.69701136213412  26.03973811832709  -14.411406142462292  29.508831596567028  0.000000
2.885999999999999  0.000000  0.000000  0.000000  -30.48252343387791  -0.5969864866464637  4.657853317101415  57.498090458312205  4.634031461041196  -9.656935619160594  47.33193023839412  22.095203166895885  -13.705443646024339  30.535769099593825  0.000000
2.924999999999999  0.000000  0.000000  0.000000  -32.67863005986726  0.5391361474791597  1.0563416211296084  59.16851209177436  4.786802752679898  -4.82782239050332  44.63291078211738  16.995353045222313  -10.115367244760472  31.0610709297102  0.000000
2.963999999999999  0.000000  0.000000  0.000000  -34.842876906751954  1.4036908227725984  -4.1220286916707725  60.754767460804125  6.3002133313678215  -0.050413353227069004  34.668894337885725  11.563601724527883  -0.1261926911983567  30.51556714423684  0.000000
